<svg id="Group_722" data-name="Group 722" xmlns="http://www.w3.org/2000/svg" viewBox="0 0 23 23">
  <defs>
    <style>
      .cls-1 {
        fill: #00639a;
      }
    </style>
  </defs>
  <path id="Path_26" data-name="Path 26" class="cls-1" d="M11.5,0A11.434,11.434,0,0,0,0,11.5,11.434,11.434,0,0,0,11.5,23,11.434,11.434,0,0,0,23,11.5,11.434,11.434,0,0,0,11.5,0Zm6.665,7.906L9.8,16.6c-.131.131-.2.131-.392.131a.7.7,0,0,1-.392-.131L4.966,12.219l-.131-.131A.48.48,0,0,1,4.7,11.7a.929.929,0,0,1,.131-.392l.719-.719a.513.513,0,0,1,.719,0l.065.065,2.875,3.071a.245.245,0,0,0,.392,0L16.6,6.469h.065a.513.513,0,0,1,.719,0l.719.719a.466.466,0,0,1,.065.719Zm0,0"/>
</svg>
