<?xml version="1.0" encoding="utf-8"?>
<!-- Generator: Adobe Illustrator 22.1.0, SVG Export Plug-In . SVG Version: 6.00 Build 0)  -->
<svg version="1.1"
	 id="Layer_1" xmlns:cc="http://creativecommons.org/ns#" xmlns:dc="http://purl.org/dc/elements/1.1/" xmlns:rdf="http://www.w3.org/1999/02/22-rdf-syntax-ns#"
	 xmlns="http://www.w3.org/2000/svg" xmlns:xlink="http://www.w3.org/1999/xlink" x="0px" y="0px" viewBox="0 0 1500 508"
	 style="enable-background:new 0 0 1500 508;" xml:space="preserve">
<style type="text/css">
	.st0{fill:url(#SVGID_1_);}
	.st1{fill:url(#SVGID_2_);}
	.st2{fill:url(#SVGID_3_);}
	.st3{fill:url(#SVGID_4_);}
	.st4{fill:url(#SVGID_5_);}
	.st5{fill:url(#SVGID_6_);}
	.st6{fill:url(#SVGID_7_);}
	.st7{fill:url(#SVGID_8_);}
</style>
<g transform="translate(0,-1)">
	
		<linearGradient id="SVGID_1_" gradientUnits="userSpaceOnUse" x1="2202.9316" y1="2055.6399" x2="2202.9316" y2="555.9373" gradientTransform="matrix(0 -1 -1 0 2055.6399 2357.25)">
		<stop  offset="0" style="stop-color:#F7F7F7"/>
		<stop  offset="0.5008" style="stop-color:#EBECEC"/>
		<stop  offset="1" style="stop-color:#E6E7E8"/>
	</linearGradient>
	<path class="st0" d="M1270.3,135.2c-124.2-2.9-267.5-16.5-419.1-30.9c-24.4-2.3-48.7-4.6-74-7c-26.7,2.3-53.5,4.7-79.4,7
		C535,118.7,381,132.4,247.6,135.2c-103.7,2.2-181-2.3-247.6-14.7v75.6c89.5,12.4,142.4,16.9,246.1,14.7
		c133.4-2.9,287.4-16.5,450.3-30.9c241.3-21.4,519.5-46.1,803.3-38.2v-21.2C1437.6,132.9,1366.9,137.4,1270.3,135.2L1270.3,135.2z"
		/>
	
		<linearGradient id="SVGID_2_" gradientUnits="userSpaceOnUse" x1="1992.5363" y1="1118.7637" x2="2400.5337" y2="1576.7434" gradientTransform="matrix(0 -1 -1 0 2055.6399 2357.25)">
		<stop  offset="0" style="stop-color:#F1F2F2"/>
		<stop  offset="1" style="stop-color:#E6E7E8"/>
	</linearGradient>
	<path class="st1" d="M696.4,179.9c-162.9,14.4-316.8,28.1-450.3,30.9C142.4,213,89.5,208.5,0,196.1v58.4
		c263.9-9.3,522.2,6.2,816.1,22.4c171.5,9.4,348.6,19.2,492.5,21.7c103.4,1.8,160.5-0.6,191.1-2.9v-154
		C1215.9,133.7,937.7,158.5,696.4,179.9L696.4,179.9z"/>
	
		<linearGradient id="SVGID_3_" gradientUnits="userSpaceOnUse" x1="2128.2815" y1="654.6808" x2="2341.9387" y2="1035.1001" gradientTransform="matrix(0 -1 -1 0 2055.6399 2357.25)">
		<stop  offset="0" style="stop-color:#F1F2F2"/>
		<stop  offset="1" style="stop-color:#ECECED"/>
	</linearGradient>
	<path class="st2" d="M777.5,97.3c25,2.3,49.6,4.7,74,7c151.6,14.4,294.8,28.1,419.1,30.9c96.6,2.2,167.3-2.3,229.4-14.7V66.1
		C1246.5,59,999.2,77.9,777.5,97.3z"/>
	
		<linearGradient id="SVGID_4_" gradientUnits="userSpaceOnUse" x1="2308.1001" y1="2055.6399" x2="2308.1001" y2="555.9372" gradientTransform="matrix(0 -1 -1 0 2055.6399 2357.25)">
		<stop  offset="0" style="stop-color:#F7F7F7"/>
		<stop  offset="1" style="stop-color:#E6E7E8"/>
	</linearGradient>
	<path class="st3" d="M0,71.1c270.8-17.6,540.3,4,777.5,26.2c221.7-19.3,469-38.2,722.2-31.1V1H0C0,1,0,71.1,0,71.1z"/>
	
		<linearGradient id="SVGID_5_" gradientUnits="userSpaceOnUse" x1="2044.1052" y1="2055.6399" x2="2044.1052" y2="555.9373" gradientTransform="matrix(0 -1 -1 0 2055.6399 2357.25)">
		<stop  offset="0" style="stop-color:#F1F2F2"/>
		<stop  offset="1" style="stop-color:#E6E7E8"/>
	</linearGradient>
	<path class="st4" d="M1308.6,298.6c-143.8-2.5-321-12.3-492.5-21.7C522.2,260.7,263.9,245.1,0,254.5v116.6
		c55.9,2.3,93.9,4.7,204.8,2.9c154.5-2.5,345.1-12.3,529.3-21.7c271.3-13.9,532.6-27.3,765.6-24.9v-31.7
		C1468.8,298,1412,300.4,1308.6,298.6L1308.6,298.6z"/>
	
		<linearGradient id="SVGID_6_" gradientUnits="userSpaceOnUse" x1="2116.9514" y1="1432.6746" x2="2332.5635" y2="1817.2493" gradientTransform="matrix(0 -1 -1 0 2055.6399 2357.25)">
		<stop  offset="0" style="stop-color:#F1F2F2"/>
		<stop  offset="1" style="stop-color:#ECECED"/>
	</linearGradient>
	<path class="st5" d="M247.6,135.2c133.4-2.9,287.4-16.5,450.3-30.9c26.2-2.3,52.6-4.7,79.4-7C540.3,75.1,270.8,53.5,0,71.1v49.4
		C66.6,132.9,144.1,137.4,247.6,135.2z"/>
	
		<linearGradient id="SVGID_7_" gradientUnits="userSpaceOnUse" x1="1781.0862" y1="586.402" x2="2162.23" y2="2008.446" gradientTransform="matrix(0 -1 -1 0 2055.6399 2357.25)">
		<stop  offset="0" style="stop-color:#F7F7F7"/>
		<stop  offset="1" style="stop-color:#E6E7E8"/>
	</linearGradient>
	<path class="st6" d="M734.1,352.3c-184.3,9.4-374.8,19.2-529.3,21.7C93.9,375.8,55.9,373.4,0,371.1v68.3
		c196.5-2.5,417.3,2.5,786.7,11.5c213.1,5.2,540.9,13.2,713,11.6V327.3C1266.7,324.9,1005.4,338.4,734.1,352.3L734.1,352.3z"/>
	
		<linearGradient id="SVGID_8_" gradientUnits="userSpaceOnUse" x1="2024.9104" y1="2008.7101" x2="1701.4044" y2="525.4496" gradientTransform="matrix(0 -1 -1 0 2055.6399 2357.25)">
		<stop  offset="0" style="stop-color:#F7F7F7"/>
		<stop  offset="1" style="stop-color:#E6E7E8"/>
	</linearGradient>
	<path class="st7" d="M786.7,450.9c-369.4-9-590.3-14-786.7-11.5v69.5l1499.7,0.1v-46.6C1327.6,464,999.8,456,786.7,450.9z"/>
</g>
</svg>
